<mxfile host="65bd71144e">
    <diagram id="YSO1k5B5jH2_3D_pVGKF" name="Page-1">
        <mxGraphModel dx="1157" dy="538" grid="1" gridSize="10" guides="1" tooltips="1" connect="1" arrows="1" fold="1" page="1" pageScale="1" pageWidth="1654" pageHeight="1169" math="0" shadow="0">
            <root>
                <mxCell id="0"/>
                <mxCell id="1" parent="0"/>
                <mxCell id="40" style="edgeStyle=orthogonalEdgeStyle;orthogonalLoop=1;jettySize=auto;html=1;exitX=1;exitY=0.5;exitDx=0;exitDy=0;strokeWidth=5;curved=1;labelBackgroundColor=none;" edge="1" parent="1" source="4">
                    <mxGeometry relative="1" as="geometry">
                        <mxPoint x="360" y="125" as="targetPoint"/>
                    </mxGeometry>
                </mxCell>
                <mxCell id="4" value="Defined&#10;Â parameters" style="shape=table;container=1;collapsible=0;childLayout=tableLayout;align=center;fillColor=#0000FF;rounded=1;labelBackgroundColor=none;fontSize=14;fontColor=#FFFFFF;fontStyle=1" vertex="1" parent="1">
                    <mxGeometry x="190" y="90" width="80" height="70" as="geometry"/>
                </mxCell>
                <mxCell id="5" value="" style="shape=partialRectangle;html=1;whiteSpace=wrap;collapsible=0;dropTarget=0;pointerEvents=0;fillColor=none;top=0;left=0;bottom=0;right=0;points=[[0,0.5],[1,0.5]];portConstraint=eastwest;rounded=1;labelBackgroundColor=none;" vertex="1" parent="4">
                    <mxGeometry y="40" width="80" height="10" as="geometry"/>
                </mxCell>
                <mxCell id="6" value="" style="shape=partialRectangle;html=1;whiteSpace=wrap;connectable=0;fillColor=none;top=0;left=0;bottom=0;right=0;overflow=hidden;rounded=1;labelBackgroundColor=none;" vertex="1" parent="5">
                    <mxGeometry width="27" height="10" as="geometry"/>
                </mxCell>
                <mxCell id="7" value="" style="shape=partialRectangle;html=1;whiteSpace=wrap;connectable=0;fillColor=none;top=0;left=0;bottom=0;right=0;overflow=hidden;rounded=1;labelBackgroundColor=none;" vertex="1" parent="5">
                    <mxGeometry x="27" width="26" height="10" as="geometry"/>
                </mxCell>
                <mxCell id="8" value="" style="shape=partialRectangle;html=1;whiteSpace=wrap;connectable=0;fillColor=none;top=0;left=0;bottom=0;right=0;overflow=hidden;rounded=1;labelBackgroundColor=none;" vertex="1" parent="5">
                    <mxGeometry x="53" width="27" height="10" as="geometry"/>
                </mxCell>
                <mxCell id="9" value="" style="shape=partialRectangle;html=1;whiteSpace=wrap;collapsible=0;dropTarget=0;pointerEvents=0;fillColor=none;top=0;left=0;bottom=0;right=0;points=[[0,0.5],[1,0.5]];portConstraint=eastwest;labelBackgroundColor=none;labelBorderColor=#00FF00;rounded=1;" vertex="1" parent="4">
                    <mxGeometry y="50" width="80" height="10" as="geometry"/>
                </mxCell>
                <mxCell id="10" value="" style="shape=partialRectangle;html=1;whiteSpace=wrap;connectable=0;fillColor=none;top=0;left=0;bottom=0;right=0;overflow=hidden;rounded=1;labelBackgroundColor=none;" vertex="1" parent="9">
                    <mxGeometry width="27" height="10" as="geometry"/>
                </mxCell>
                <mxCell id="11" value="" style="shape=partialRectangle;html=1;whiteSpace=wrap;connectable=0;fillColor=none;top=0;left=0;bottom=0;right=0;overflow=hidden;rounded=1;labelBackgroundColor=none;" vertex="1" parent="9">
                    <mxGeometry x="27" width="26" height="10" as="geometry"/>
                </mxCell>
                <mxCell id="12" value="" style="shape=partialRectangle;html=1;whiteSpace=wrap;connectable=0;fillColor=none;top=0;left=0;bottom=0;right=0;overflow=hidden;rounded=1;labelBackgroundColor=none;" vertex="1" parent="9">
                    <mxGeometry x="53" width="27" height="10" as="geometry"/>
                </mxCell>
                <mxCell id="13" value="" style="shape=partialRectangle;html=1;whiteSpace=wrap;collapsible=0;dropTarget=0;pointerEvents=0;fillColor=none;top=0;left=0;bottom=0;right=0;points=[[0,0.5],[1,0.5]];portConstraint=eastwest;rounded=1;labelBackgroundColor=none;" vertex="1" parent="4">
                    <mxGeometry y="60" width="80" height="10" as="geometry"/>
                </mxCell>
                <mxCell id="14" value="" style="shape=partialRectangle;html=1;whiteSpace=wrap;connectable=0;fillColor=none;top=0;left=0;bottom=0;right=0;overflow=hidden;rounded=1;labelBackgroundColor=none;" vertex="1" parent="13">
                    <mxGeometry width="27" height="10" as="geometry"/>
                </mxCell>
                <mxCell id="15" value="" style="shape=partialRectangle;html=1;whiteSpace=wrap;connectable=0;fillColor=none;top=0;left=0;bottom=0;right=0;overflow=hidden;rounded=1;labelBackgroundColor=none;" vertex="1" parent="13">
                    <mxGeometry x="27" width="26" height="10" as="geometry"/>
                </mxCell>
                <mxCell id="16" value="" style="shape=partialRectangle;html=1;whiteSpace=wrap;connectable=0;fillColor=none;top=0;left=0;bottom=0;right=0;overflow=hidden;rounded=1;labelBackgroundColor=none;" vertex="1" parent="13">
                    <mxGeometry x="53" width="27" height="10" as="geometry"/>
                </mxCell>
                <mxCell id="55" value="" style="edgeStyle=orthogonalEdgeStyle;curved=1;rounded=0;orthogonalLoop=1;jettySize=auto;html=1;strokeWidth=5;fillColor=#000000;labelBackgroundColor=none;" edge="1" parent="1" source="24" target="54">
                    <mxGeometry relative="1" as="geometry"/>
                </mxCell>
                <mxCell id="24" value="&lt;font style=&quot;font-size: 14px;&quot;&gt;&lt;b style=&quot;font-size: 14px;&quot;&gt;Run&lt;br style=&quot;font-size: 14px;&quot;&gt;&amp;nbsp;Simulations&lt;/b&gt;&lt;/font&gt;" style="shape=step;perimeter=stepPerimeter;whiteSpace=wrap;html=1;fixedSize=1;labelBackgroundColor=none;strokeColor=#000000;rounded=1;fontColor=#FFFFFF;fontSize=14;fillColor=#0000FF;" vertex="1" parent="1">
                    <mxGeometry x="510" y="94.5" width="110" height="61" as="geometry"/>
                </mxCell>
                <mxCell id="25" value="APSIMX-Slurp files" style="group;rounded=1;verticalAlign=bottom;labelPosition=center;verticalLabelPosition=top;align=center;fontStyle=1;labelBackgroundColor=none;" vertex="1" connectable="0" parent="1">
                    <mxGeometry x="370" y="80.4" width="50.799999999999955" height="90.6" as="geometry"/>
                </mxCell>
                <mxCell id="17" value="" style="verticalLabelPosition=bottom;html=1;verticalAlign=top;strokeWidth=1;align=center;outlineConnect=0;dashed=0;outlineConnect=0;shape=mxgraph.aws3d.file;aspect=fixed;strokeColor=#292929;labelBackgroundColor=none;rounded=1;" vertex="1" parent="25">
                    <mxGeometry width="30.8" height="70.6" as="geometry"/>
                </mxCell>
                <mxCell id="18" value="" style="verticalLabelPosition=bottom;html=1;verticalAlign=top;strokeWidth=1;align=center;outlineConnect=0;dashed=0;outlineConnect=0;shape=mxgraph.aws3d.file;aspect=fixed;strokeColor=#292929;labelBackgroundColor=none;rounded=1;" vertex="1" parent="25">
                    <mxGeometry x="10" y="10" width="30.8" height="70.6" as="geometry"/>
                </mxCell>
                <mxCell id="19" value="" style="verticalLabelPosition=bottom;html=1;verticalAlign=top;strokeWidth=1;align=center;outlineConnect=0;dashed=0;outlineConnect=0;shape=mxgraph.aws3d.file;aspect=fixed;strokeColor=#292929;labelBackgroundColor=none;rounded=1;" vertex="1" parent="25">
                    <mxGeometry x="20" y="20" width="30.8" height="70.6" as="geometry"/>
                </mxCell>
                <mxCell id="43" style="edgeStyle=orthogonalEdgeStyle;orthogonalLoop=1;jettySize=auto;html=1;exitX=1;exitY=0.5;exitDx=0;exitDy=0;strokeWidth=5;curved=1;labelBackgroundColor=none;" edge="1" parent="1">
                    <mxGeometry relative="1" as="geometry">
                        <mxPoint x="430" y="125.2" as="sourcePoint"/>
                        <mxPoint x="520" y="125.2" as="targetPoint"/>
                    </mxGeometry>
                </mxCell>
                <mxCell id="57" value="" style="edgeStyle=orthogonalEdgeStyle;curved=1;rounded=0;orthogonalLoop=1;jettySize=auto;html=1;strokeWidth=5;fillColor=#000000;labelBackgroundColor=none;" edge="1" parent="1" source="54" target="56">
                    <mxGeometry relative="1" as="geometry"/>
                </mxCell>
                <mxCell id="54" value="&lt;font&gt;&lt;b&gt;Calculating&lt;br&gt;Cost&lt;br&gt;&lt;/b&gt;&lt;/font&gt;" style="shape=step;perimeter=stepPerimeter;whiteSpace=wrap;html=1;fixedSize=1;labelBackgroundColor=none;strokeColor=#000000;fillColor=#0000FF;rounded=1;fontSize=14;fontColor=#FFFFFF;" vertex="1" parent="1">
                    <mxGeometry x="690" y="94.5" width="110" height="61" as="geometry"/>
                </mxCell>
                <mxCell id="59" value="" style="edgeStyle=orthogonalEdgeStyle;curved=1;rounded=0;orthogonalLoop=1;jettySize=auto;html=1;strokeWidth=5;fillColor=#000000;labelBackgroundColor=none;" edge="1" parent="1" source="56" target="58">
                    <mxGeometry relative="1" as="geometry"/>
                </mxCell>
                <mxCell id="56" value="&lt;font&gt;&lt;b&gt;Report the&amp;nbsp;&lt;br&gt;best&amp;nbsp;&lt;br&gt;combinations&lt;br&gt;&lt;/b&gt;&lt;/font&gt;" style="shape=step;perimeter=stepPerimeter;whiteSpace=wrap;html=1;fixedSize=1;labelBackgroundColor=none;strokeColor=#000000;fillColor=#0000FF;rounded=1;fontSize=14;fontColor=#FFFFFF;" vertex="1" parent="1">
                    <mxGeometry x="690" y="235.5" width="110" height="61" as="geometry"/>
                </mxCell>
                <mxCell id="61" value="" style="edgeStyle=orthogonalEdgeStyle;curved=1;rounded=0;orthogonalLoop=1;jettySize=auto;html=1;strokeWidth=5;fillColor=#000000;labelBackgroundColor=none;" edge="1" parent="1" source="58" target="60">
                    <mxGeometry relative="1" as="geometry"/>
                </mxCell>
                <mxCell id="58" value="&lt;font&gt;&lt;b&gt;Modified APSIMX-Lucerne&lt;br&gt;water related &lt;br&gt;parameters&lt;br&gt;&lt;/b&gt;&lt;/font&gt;" style="shape=step;perimeter=stepPerimeter;whiteSpace=wrap;html=1;fixedSize=1;labelBackgroundColor=none;strokeColor=#000000;fillColor=#0000FF;rounded=1;fontSize=14;fontColor=#FFFFFF;" vertex="1" parent="1">
                    <mxGeometry x="420" y="235.5" width="210" height="61" as="geometry"/>
                </mxCell>
                <mxCell id="60" value="&lt;font&gt;&lt;b&gt;Run simulations and&amp;nbsp;&lt;br&gt;evaluations&lt;br&gt;&lt;/b&gt;&lt;/font&gt;" style="shape=step;perimeter=stepPerimeter;whiteSpace=wrap;html=1;fixedSize=1;labelBackgroundColor=none;strokeColor=#000000;fillColor=#0000FF;rounded=1;fontSize=14;fontColor=#FFFFFF;" vertex="1" parent="1">
                    <mxGeometry x="180" y="235.5" width="170" height="61" as="geometry"/>
                </mxCell>
            </root>
        </mxGraphModel>
    </diagram>
</mxfile>